<svg width="100" height="100" viewBox="0 0 100 100" fill="none" xmlns="http://www.w3.org/2000/svg">
<path d="M50 0L58.6603 25H41.3397L50 0Z" fill="hsl(var(--primary))"/>
<path d="M50 100L41.3397 75H58.6603L50 100Z" fill="hsl(var(--primary))"/>
<path d="M25 41.3397L0 50L25 58.6603V41.3397Z" fill="hsl(var(--primary))"/>
<path d="M75 58.6603L100 50L75 41.3397V58.6603Z" fill="hsl(var(--primary))"/>
<path d="M29.2893 29.2893L20 12.5L12.5 20L29.2893 29.2893Z" fill="hsl(var(--primary))" fill-opacity="0.5"/>
<path d="M70.7107 70.7107L87.5 80L80 87.5L70.7107 70.7107Z" fill="hsl(var(--primary))" fill-opacity="0.5"/>
<path d="M29.2893 70.7107L12.5 80L20 87.5L29.2893 70.7107Z" fill="hsl(var(--primary))" fill-opacity="0.5"/>
<path d="M70.7107 29.2893L80 12.5L87.5 20L70.7107 29.2893Z" fill="hsl(var(--primary))" fill-opacity="0.5"/>
<circle cx="50" cy="50" r="20" fill="hsl(var(--primary))"/>
</svg>
